<?xml version="1.0" standalone="no"?>
<!DOCTYPE svg PUBLIC "-//W3C//DTD SVG 20010904//EN"
 "http://www.w3.org/TR/2001/REC-SVG-20010904/DTD/svg10.dtd">
<svg version="1.0" xmlns="http://www.w3.org/2000/svg"
 width="500.000000pt" height="500.000000pt" viewBox="0 0 500.000000 500.000000"
 preserveAspectRatio="xMidYMid meet">
<metadata>
Created by potrace 1.14, written by Peter Selinger 2001-2017
</metadata>
<g transform="translate(0.000000,500.000000) scale(0.100000,-0.100000)"
fill="#000000" stroke="none">
<path d="M3239 4543 c0 -5 -2 -142 -2 -306 l-2 -298 74 -45 c40 -24 78 -44 83
-44 5 0 7 -4 3 -9 -3 -5 -1 -12 5 -16 16 -10 11 -68 -9 -93 -13 -19 -28 -24
-65 -26 -43 -2 -49 1 -62 26 -8 15 -14 31 -13 34 0 4 -6 11 -15 16 -9 5 -16
13 -16 18 0 5 -20 44 -45 86 -25 41 -45 80 -45 85 0 5 -4 9 -10 9 -5 0 -10 6
-10 14 0 7 -10 29 -23 47 -13 19 -36 59 -53 89 -16 30 -32 56 -36 58 -4 2 -12
19 -18 38 -6 19 -16 34 -21 34 -6 0 -7 5 -4 10 3 6 2 10 -2 10 -5 0 -17 17
-28 38 -51 96 -119 182 -146 182 -12 0 -11 -561 1 -580 5 -8 10 -12 10 -8 0 4
24 -9 52 -28 29 -19 55 -34 59 -34 10 0 29 -50 29 -78 -1 -56 -18 -69 -90 -67
-108 3 -223 -41 -299 -113 -23 -22 -41 -37 -41 -34 0 9 -48 -62 -66 -95 -9
-18 -19 -33 -23 -33 -4 0 -8 -8 -9 -17 -3 -38 -38 -179 -47 -194 -6 -9 -20
-21 -32 -28 -42 -21 -71 -13 -127 38 -30 27 -52 52 -49 54 2 3 -5 8 -16 12
-12 3 -21 12 -22 18 0 7 -29 38 -64 69 -35 31 -61 58 -60 60 2 2 -9 12 -26 23
-16 11 -29 23 -29 26 0 10 -92 99 -102 99 -5 0 -6 5 -3 10 3 6 -1 10 -9 10 -8
0 -17 8 -20 18 -4 11 -17 25 -31 32 -13 7 -22 17 -19 22 3 4 1 8 -4 8 -12 0
-92 80 -92 92 0 5 -4 6 -10 3 -5 -3 -10 1 -10 9 0 9 -8 16 -17 16 -9 0 -14 3
-11 6 7 6 -39 54 -51 54 -5 0 -11 6 -14 14 -3 8 -15 19 -25 25 -17 9 -45 -15
-225 -197 -311 -314 -369 -377 -391 -423 -5 -10 -13 -19 -18 -19 -4 0 -8 -5
-8 -10 0 -6 -12 -29 -27 -53 -14 -23 -26 -43 -25 -44 1 -2 -7 -22 -17 -45 -25
-59 -34 -81 -37 -95 -1 -6 -7 -27 -13 -45 -33 -106 -47 -328 -28 -464 6 -36
44 -181 56 -209 14 -33 28 -69 30 -77 8 -36 136 -238 151 -238 7 0 70 93 70
105 0 3 16 29 35 59 19 30 35 60 35 66 0 5 3 10 8 10 4 0 17 22 30 50 27 59
106 141 164 171 85 43 114 48 285 50 129 0 169 4 180 15 8 8 12 14 9 14 -3 0
17 36 44 81 28 44 50 84 50 88 0 19 87 113 135 147 80 55 100 59 290 62 l180
3 135 -133 c74 -73 134 -136 132 -140 -1 -5 2 -8 8 -8 5 0 177 -168 383 -374
360 -360 373 -375 372 -409 -3 -63 -59 -105 -114 -86 -17 6 -31 15 -31 20 0 5
-5 9 -11 9 -5 0 -155 145 -333 323 -364 364 -398 394 -476 427 -14 6 -34 14
-45 19 -119 52 -352 36 -447 -30 -14 -11 -30 -19 -35 -19 -5 0 -29 -18 -53
-40 -25 -22 -48 -40 -52 -40 -5 0 -8 -4 -8 -10 0 -9 -6 -18 -52 -72 -10 -12
-18 -27 -18 -34 0 -7 -4 -14 -9 -16 -12 -4 -70 -202 -60 -206 3 -2 3 -18 -1
-37 -4 -19 -5 -35 -1 -35 3 0 6 -15 5 -32 -2 -38 20 -128 42 -178 40 -87 96
-153 351 -408 150 -151 273 -276 273 -279 0 -2 6 -11 14 -19 8 -7 13 -22 11
-31 -2 -10 -4 -24 -4 -31 -2 -29 -49 -62 -88 -62 -37 0 -49 10 -280 241 l-242
241 -22 -21 c-13 -12 -27 -21 -31 -21 -5 0 -6 -4 -3 -10 3 -5 2 -10 -3 -10
-14 0 -410 -399 -441 -444 -38 -56 -70 -126 -86 -187 -13 -49 -13 -51 6 -46
10 3 22 1 25 -4 3 -5 11 -6 17 -2 6 4 39 6 72 5 33 -2 67 -3 75 -3 78 2 376 2
380 0 3 -1 10 0 15 1 29 7 85 5 85 -3 0 -4 5 -5 11 -1 6 3 133 7 283 9 272 2
290 4 386 42 8 3 19 5 23 4 5 -1 6 3 3 8 -4 5 3 12 14 16 24 8 110 89 137 130
41 61 65 146 67 230 0 44 -2 94 -5 110 -17 77 -70 175 -125 230 -14 14 -21 25
-17 25 4 0 1 4 -7 10 -8 5 -136 129 -283 277 l-268 268 5 44 c4 30 12 49 28
60 30 21 67 31 74 20 3 -5 10 -7 15 -4 5 4 123 -107 263 -246 140 -139 261
-256 268 -260 7 -5 10 -9 7 -9 -4 0 31 -37 76 -82 84 -84 130 -153 166 -250
42 -110 50 -175 52 -408 l2 -225 128 -128 128 -129 177 2 c97 0 178 2 179 4 2
2 -8 25 -23 52 -15 27 -33 60 -40 74 -36 67 -82 125 -114 142 -26 14 -57 18
-127 18 -69 0 -95 4 -107 15 -18 19 -17 24 52 144 30 53 65 114 77 136 l23 40
99 1 c54 0 103 -3 108 -7 6 -4 10 -77 9 -184 l0 -177 131 -131 131 -132 177 3
c104 1 177 6 177 12 0 5 -16 34 -35 64 -19 30 -35 57 -35 60 0 21 -70 112
-101 132 -33 21 -51 24 -128 24 -49 0 -96 3 -105 6 -21 8 -19 52 5 89 10 17
24 41 29 55 6 13 14 27 18 30 6 5 31 47 71 125 9 16 19 32 22 35 3 3 14 21 24
40 10 19 46 80 80 135 57 93 91 161 101 210 14 60 15 162 3 218 -7 34 -12 65
-11 70 1 4 -2 7 -6 7 -5 0 -15 18 -22 40 -7 22 -17 40 -22 40 -4 0 -8 7 -8 15
0 12 -185 202 -340 348 -22 21 -40 40 -40 41 0 6 -172 176 -179 176 -3 1 -19
19 -36 40 -16 21 -36 39 -43 40 -7 0 -11 4 -8 8 2 4 -9 17 -25 27 -16 11 -29
23 -29 26 0 3 -39 44 -86 90 -47 46 -113 113 -147 148 -34 35 -70 71 -81 80
-30 26 -66 65 -66 73 0 4 -8 9 -18 12 -11 4 -25 17 -32 31 -7 13 -17 22 -22
19 -4 -3 -8 2 -8 10 0 9 -6 16 -14 16 -8 0 -16 4 -18 9 -1 5 -21 29 -44 53
-54 57 -67 83 -59 118 9 41 49 70 96 70 38 0 51 -12 489 -449 l450 -449 42 2
c100 4 215 89 267 196 24 50 26 68 29 191 l2 137 -112 3 c-129 5 -154 16 -187
84 -16 34 -19 63 -19 191 0 163 -12 231 -57 309 -12 22 -48 84 -79 138 -31 54
-56 103 -56 108 0 5 -3 9 -8 9 -4 0 -16 17 -27 38 -11 20 -39 70 -62 110 -24
39 -39 72 -35 72 4 0 -1 5 -10 11 -10 5 -18 14 -18 19 0 5 -15 35 -34 67 -19
32 -34 62 -34 67 0 5 -4 12 -9 15 -12 8 -93 150 -93 162 0 5 -4 9 -9 9 -5 0
-13 10 -17 22 -10 32 -70 123 -104 158 -30 31 -39 36 -41 23z m416 -1337 c39
-17 68 -64 63 -104 -4 -32 -37 -84 -48 -77 -4 3 -10 -1 -13 -8 -7 -18 -54 -19
-92 -1 -58 27 -79 106 -42 154 19 25 60 50 80 50 9 0 33 -6 52 -14z"/>
</g>
</svg>
